<?xml version="1.0" standalone="no"?>
<!DOCTYPE svg PUBLIC "-//W3C//DTD SVG 20010904//EN"
 "http://www.w3.org/TR/2001/REC-SVG-20010904/DTD/svg10.dtd">
<svg version="1.0" xmlns="http://www.w3.org/2000/svg"
 width="507.000000pt" height="244.000000pt" viewBox="0 0 507.000000 244.000000"
 preserveAspectRatio="xMidYMid meet">

<g transform="translate(0.000000,244.000000) scale(0.100000,-0.100000)"
fill="#475569" stroke="none">
<path d="M1597 1812 c-25 -28 -22 -84 6 -110 18 -17 36 -22 80 -22 50 0 57 -2
57 -20 0 -17 -7 -20 -49 -20 -28 0 -53 5 -56 10 -3 6 -17 10 -31 10 -29 0 -33
-29 -6 -53 14 -13 38 -17 94 -17 87 0 108 14 108 72 0 49 -23 66 -95 70 -52 3
-60 6 -60 23 0 16 8 21 44 23 24 2 49 -2 54 -7 19 -19 57 -13 57 7 0 37 -32
52 -112 52 -60 0 -78 -4 -91 -18z"/>
<path d="M1850 1727 c0 -130 5 -137 107 -137 97 0 103 8 103 138 l0 102 -30 0
-30 0 0 -95 0 -95 -45 0 -45 0 0 95 0 95 -30 0 -30 0 0 -103z"/>
<path d="M2110 1710 l0 -120 35 0 34 0 3 62 3 61 43 -61 c36 -52 48 -62 73
-62 l29 0 0 120 0 120 -30 0 -30 0 0 -65 c0 -36 -3 -65 -7 -65 -5 0 -28 30
-52 65 -36 55 -48 65 -72 65 l-29 0 0 -120z"/>
<path d="M2380 1710 l0 -120 88 0 c116 0 122 6 122 122 0 112 -6 118 -123 118
l-87 0 0 -120z m150 0 l0 -70 -45 0 -45 0 0 70 0 70 45 0 45 0 0 -70z"/>
<path d="M2640 1727 c0 -133 3 -137 123 -137 86 0 87 0 87 25 0 24 -2 25 -75
25 -68 0 -75 2 -75 20 0 18 7 20 65 20 63 0 65 1 65 25 0 24 -2 25 -65 25 -63
0 -65 1 -65 25 0 24 2 25 75 25 73 0 75 1 75 25 l0 25 -105 0 -105 0 0 -103z"/>
<path d="M2900 1710 l0 -120 30 0 c28 0 30 2 30 40 0 36 3 40 25 40 18 0 30
-10 47 -40 18 -31 29 -40 51 -40 32 0 35 18 11 56 -15 23 -15 26 0 43 10 11
16 35 16 63 0 67 -17 78 -123 78 l-87 0 0 -120z m150 40 c0 -29 -2 -30 -45
-30 -43 0 -45 1 -45 30 0 29 2 30 45 30 43 0 45 -1 45 -30z"/>
<path d="M3170 1710 l0 -120 30 0 30 0 0 63 1 62 20 -37 c11 -21 26 -38 34
-38 8 0 25 19 37 43 l23 42 3 -67 c3 -68 3 -68 32 -68 l30 0 0 120 0 120 -33
0 c-30 0 -35 -5 -61 -57 l-28 -57 -31 57 c-27 48 -36 57 -59 57 l-28 0 0 -120z"/>
<path d="M3477 1812 c-14 -15 -17 -40 -17 -120 l0 -102 30 0 c28 0 30 3 30 35
0 35 0 35 45 35 45 0 45 0 45 -35 0 -32 2 -35 30 -35 l30 0 0 103 c0 130 -5
137 -107 137 -55 0 -73 -4 -86 -18z m133 -67 c0 -35 0 -35 -45 -35 -45 0 -45
0 -45 35 0 35 0 35 45 35 45 0 45 0 45 -35z"/>
<path d="M3720 1710 l0 -120 30 0 c29 0 29 0 32 68 l3 67 45 -65 c38 -54 51
-66 78 -68 l32 -3 0 120 0 121 -35 0 -34 0 -3 -65 -3 -65 -44 65 c-37 54 -49
65 -73 65 l-28 0 0 -120z"/>
<path d="M3990 1710 l0 -120 30 0 30 0 0 67 0 67 46 -67 c39 -56 51 -67 75
-67 l29 0 0 120 0 120 -30 0 c-29 0 -29 0 -32 -67 l-3 -68 -48 68 c-37 51 -55
67 -73 67 l-24 0 0 -120z"/>
<path d="M877 1272 l-277 -278 33 -32 33 -32 279 280 279 279 -29 31 c-16 16
-31 30 -34 30 -4 0 -131 -125 -284 -278z"/>
<path d="M1642 1417 l-62 -63 0 -290 0 -290 63 -62 63 -62 225 0 225 0 67 68
67 68 0 57 0 57 -78 0 c-76 0 -79 -1 -112 -35 l-34 -35 -133 0 -133 0 0 235 0
235 133 0 133 0 29 -30 c27 -29 33 -30 112 -30 l83 0 0 58 c0 57 0 58 -63 120
l-63 62 -230 0 -230 0 -62 -63z"/>
<path d="M2460 1065 l0 -415 105 0 105 0 0 233 0 232 74 -140 73 -140 51 -3
50 -3 73 141 74 141 3 -230 2 -231 105 0 105 0 0 415 0 416 -106 -3 -107 -3
-96 -182 c-53 -101 -98 -183 -101 -183 -3 0 -48 82 -101 183 l-96 182 -107 3
-106 3 0 -416z"/>
<path d="M3512 1417 l-62 -63 0 -125 0 -125 63 -62 63 -62 202 0 202 0 0 -75
0 -75 -153 0 -153 0 -34 35 c-33 34 -36 35 -112 35 l-78 0 0 -58 0 -58 68 -67
68 -67 245 0 245 0 62 63 62 63 0 130 0 130 -63 62 -63 62 -202 0 -202 0 0 70
0 70 151 0 151 0 35 -30 c31 -28 39 -30 113 -30 l80 0 0 58 c0 57 0 58 -63
120 l-63 62 -250 0 -250 0 -62 -63z"/>
<path d="M535 1330 l-90 -90 65 -65 64 -65 33 32 33 32 -32 33 -32 33 59 60
59 60 -29 30 c-16 16 -31 30 -35 30 -3 0 -46 -40 -95 -90z"/>
<path d="M1216 1341 c-30 -31 -29 -38 7 -79 l21 -22 -59 -60 -59 -60 32 -32
32 -33 92 93 93 92 -65 65 -66 66 -28 -30z"/>
</g>
</svg>
